<svg xmlns="http://www.w3.org/2000/svg" version="1.1" width="335.25mm" height="125.25mm" viewBox = " 0 0 1187.8946775 443.7995775" >
<!-- Front--> 
<g transform="translate(22.5000185, 22.5000185) " > 
<polygon style="stroke:#000000; fill:none; stroke-width:0.90000074" points="0, 0 26.574825, 0 26.574825, 10.62993 53.14965, 10.62993 53.14965, 0 74.40951, 0 74.40951, 10.62993 95.66937, 10.62993 95.66937, 0 116.92922999999999, 0 116.92922999999999, 10.62993 138.18909, 10.62993 138.18909, 0 159.44895, 0 159.44895, 10.62993 180.70881, 10.62993 180.70881, 0 201.96867, 0 201.96867, 10.62993 223.22853, 10.62993 223.22853, 0 244.48839, 0 244.48839, 10.62993 265.74825, 10.62993 265.74825, 0 287.00811, 0 287.00811, 10.62993 308.26797, 10.62993 308.26797, 0 329.52783, 0 329.52783, 10.62993 350.78769, 10.62993 350.78769, 0 372.04755, 0 372.04755, 10.62993 398.622375, 10.62993 398.622375, 0 425.1972, 0 425.1972, 21.25986 414.56727, 21.25986 414.56727, 42.51972 425.1972, 42.51972 425.1972, 63.779579999999996 414.56727, 63.779579999999996 414.56727, 85.03944 425.1972, 85.03944 425.1972, 106.2993 398.622375, 106.2993 398.622375, 95.66937 372.04755, 95.66937 372.04755, 106.2993 350.78769, 106.2993 350.78769, 95.66937 329.52783, 95.66937 329.52783, 106.2993 308.26797, 106.2993 308.26797, 95.66937 287.00811, 95.66937 287.00811, 106.2993 265.74825, 106.2993 265.74825, 95.66937 244.48839, 95.66937 244.48839, 106.2993 223.22853, 106.2993 223.22853, 95.66937 201.96867, 95.66937 201.96867, 106.2993 180.70881, 106.2993 180.70881, 95.66937 159.44895, 95.66937 159.44895, 106.2993 138.18909, 106.2993 138.18909, 95.66937 116.92922999999999, 95.66937 116.92922999999999, 106.2993 95.66937, 106.2993 95.66937, 95.66937 74.40951, 95.66937 74.40951, 106.2993 53.14965, 106.2993 53.14965, 95.66937 26.574825, 95.66937 26.574825, 106.2993 0, 106.2993 0, 85.03944 10.62993, 85.03944 10.62993, 63.779579999999996 0, 63.779579999999996 0, 42.51972 10.62993, 42.51972 10.62993, 21.25986 0, 21.25986 "/> 
</g>
<!-- Back--> 
<g transform="translate(447.69721849999996, 22.5000185) " > 
<polygon style="stroke:#000000; fill:none; stroke-width:0.90000074" points="0, 0 26.574825, 0 26.574825, 10.62993 53.14965, 10.62993 53.14965, 0 74.40951, 0 74.40951, 10.62993 95.66937, 10.62993 95.66937, 0 116.92922999999999, 0 116.92922999999999, 10.62993 138.18909, 10.62993 138.18909, 0 159.44895, 0 159.44895, 10.62993 180.70881, 10.62993 180.70881, 0 201.96867, 0 201.96867, 10.62993 223.22853, 10.62993 223.22853, 0 244.48839, 0 244.48839, 10.62993 265.74825, 10.62993 265.74825, 0 287.00811, 0 287.00811, 10.62993 308.26797, 10.62993 308.26797, 0 329.52783, 0 329.52783, 10.62993 350.78769, 10.62993 350.78769, 0 372.04755, 0 372.04755, 10.62993 398.622375, 10.62993 398.622375, 0 425.1972, 0 425.1972, 21.25986 414.56727, 21.25986 414.56727, 42.51972 425.1972, 42.51972 425.1972, 63.779579999999996 414.56727, 63.779579999999996 414.56727, 85.03944 425.1972, 85.03944 425.1972, 106.2993 398.622375, 106.2993 398.622375, 95.66937 372.04755, 95.66937 372.04755, 106.2993 350.78769, 106.2993 350.78769, 95.66937 329.52783, 95.66937 329.52783, 106.2993 308.26797, 106.2993 308.26797, 95.66937 287.00811, 95.66937 287.00811, 106.2993 265.74825, 106.2993 265.74825, 95.66937 244.48839, 95.66937 244.48839, 106.2993 223.22853, 106.2993 223.22853, 95.66937 201.96867, 95.66937 201.96867, 106.2993 180.70881, 106.2993 180.70881, 95.66937 159.44895, 95.66937 159.44895, 106.2993 138.18909, 106.2993 138.18909, 95.66937 116.92922999999999, 95.66937 116.92922999999999, 106.2993 95.66937, 106.2993 95.66937, 95.66937 74.40951, 95.66937 74.40951, 106.2993 53.14965, 106.2993 53.14965, 95.66937 26.574825, 95.66937 26.574825, 106.2993 0, 106.2993 0, 85.03944 10.62993, 85.03944 10.62993, 63.779579999999996 0, 63.779579999999996 0, 42.51972 10.62993, 42.51972 10.62993, 21.25986 0, 21.25986 "/> 
</g>
<!-- Left--> 
<g transform="translate(872.8944184999999, 22.5000185) " > 
<polygon style="stroke:#000000; fill:none; stroke-width:0.90000074" points="10.62993, 0 35.920305125, 0 35.920305125, 10.62993 71.84061025, 10.62993 71.84061025, 0 93.10047025, 0 93.10047025, 10.62993 114.36033025, 10.62993 114.36033025, 0 135.62019025, 0 135.62019025, 10.62993 156.88005025, 10.62993 156.88005025, 0 178.13991025, 0 178.13991025, 10.62993 199.39977025, 10.62993 199.39977025, 0 220.65963025, 0 220.65963025, 10.62993 256.579935375, 10.62993 256.579935375, 0 281.87031049999996, 0 281.87031049999996, 21.25986 292.50024049999996, 21.25986 292.50024049999996, 42.51972 281.87031049999996, 42.51972 281.87031049999996, 63.779579999999996 292.50024049999996, 63.779579999999996 292.50024049999996, 85.03944 281.87031049999996, 85.03944 281.8703105, 106.2993 256.579935375, 106.2993 256.579935375, 95.66937 220.65963025, 95.66937 220.65963025, 106.2993 199.39977025, 106.2993 199.39977025, 95.66937 178.13991025, 95.66937 178.13991025, 106.2993 156.88005025, 106.2993 156.88005025, 95.66937 135.62019025, 95.66937 135.62019025, 106.2993 114.36033025, 106.2993 114.36033025, 95.66937 93.10047025, 95.66937 93.10047025, 106.2993 71.84061025, 106.2993 71.84061025, 95.66937 35.920305125, 95.66937 35.920305125, 106.2993 10.62993, 106.2993 10.62993, 85.03944 0, 85.03944 0, 63.779579999999996 10.62993, 63.779579999999996 10.62993, 42.51972 0, 42.51972 0, 21.25986 10.62993, 21.25986 "/> 
</g>
<!-- Right--> 
<g transform="translate(872.8944184999999, 128.7993185) " > 
<polygon style="stroke:#000000; fill:none; stroke-width:0.90000074" points="10.62993, 0 35.920305125, 0 35.920305125, 10.62993 71.84061025, 10.62993 71.84061025, 0 93.10047025, 0 93.10047025, 10.62993 114.36033025, 10.62993 114.36033025, 0 135.62019025, 0 135.62019025, 10.62993 156.88005025, 10.62993 156.88005025, 0 178.13991025, 0 178.13991025, 10.62993 199.39977025, 10.62993 199.39977025, 0 220.65963025, 0 220.65963025, 10.62993 256.579935375, 10.62993 256.579935375, 0 281.87031049999996, 0 281.87031049999996, 21.25986 292.50024049999996, 21.25986 292.50024049999996, 42.51972 281.87031049999996, 42.51972 281.87031049999996, 63.779579999999996 292.50024049999996, 63.779579999999996 292.50024049999996, 85.03944 281.87031049999996, 85.03944 281.8703105, 106.2993 256.579935375, 106.2993 256.579935375, 95.66937 220.65963025, 95.66937 220.65963025, 106.2993 199.39977025, 106.2993 199.39977025, 95.66937 178.13991025, 95.66937 178.13991025, 106.2993 156.88005025, 106.2993 156.88005025, 95.66937 135.62019025, 95.66937 135.62019025, 106.2993 114.36033025, 106.2993 114.36033025, 95.66937 93.10047025, 95.66937 93.10047025, 106.2993 71.84061025, 106.2993 71.84061025, 95.66937 35.920305125, 95.66937 35.920305125, 106.2993 10.62993, 106.2993 10.62993, 85.03944 0, 85.03944 0, 63.779579999999996 10.62993, 63.779579999999996 10.62993, 42.51972 0, 42.51972 0, 21.25986 10.62993, 21.25986 "/> 
</g>
<!-- Top--> 
<g transform="translate(22.5000185, 128.7993185) " > 
<polygon style="stroke:#000000; fill:none; stroke-width:0.90000074" points="10.62993, 10.62993 26.574825, 10.62993 26.574825, 0 53.14965, 0 53.14965, 10.62993 74.40951, 10.62993 74.40951, 0 95.66937, 0 95.66937, 10.62993 116.92922999999999, 10.62993 116.92922999999999, 0 138.18909, 0 138.18909, 10.62993 159.44895, 10.62993 159.44895, 0 180.70881, 0 180.70881, 10.62993 201.96867, 10.62993 201.96867, 0 223.22853, 0 223.22853, 10.62993 244.48839, 10.62993 244.48839, 0 265.74825, 0 265.74825, 10.62993 287.00811, 10.62993 287.00811, 0 308.26797, 0 308.26797, 10.62993 329.52783, 10.62993 329.52783, 0 350.78769, 0 350.78769, 10.62993 372.04755, 10.62993 372.04755, 0 398.622375, 0 398.622375, 10.62993 414.56727, 10.62993 414.56727, 35.920305125 425.1972, 35.920305125 425.1972, 71.84061025 414.56727, 71.84061025 414.56727, 93.10047025 425.1972, 93.10047025 425.1972, 114.36033025 414.56727, 114.36033025 414.56727, 135.62019025 425.1972, 135.62019025 425.1972, 156.88005025 414.56727, 156.88005025 414.56727, 178.13991025 425.1972, 178.13991025 425.1972, 199.39977025 414.56727, 199.39977025 414.56727, 220.65963025 425.1972, 220.65963025 425.1972, 256.579935375 414.56727, 256.579935375 414.56727, 281.87031049999996 398.622375, 281.87031049999996 398.622375, 292.50024049999996 372.04755, 292.50024049999996 372.04755, 281.87031049999996 350.78769, 281.87031049999996 350.78769, 292.50024049999996 329.52783, 292.50024049999996 329.52783, 281.87031049999996 308.26797, 281.87031049999996 308.26797, 292.50024049999996 287.00811, 292.50024049999996 287.00811, 281.87031049999996 265.74825, 281.87031049999996 265.74825, 292.50024049999996 244.48839, 292.50024049999996 244.48839, 281.87031049999996 223.22853, 281.87031049999996 223.22853, 292.50024049999996 201.96867, 292.50024049999996 201.96867, 281.87031049999996 180.70881, 281.87031049999996 180.70881, 292.50024049999996 159.44895, 292.50024049999996 159.44895, 281.87031049999996 138.18909, 281.87031049999996 138.18909, 292.50024049999996 116.92922999999999, 292.50024049999996 116.92922999999999, 281.87031049999996 95.66937, 281.87031049999996 95.66937, 292.50024049999996 74.40951, 292.50024049999996 74.40951, 281.87031049999996 53.14965, 281.87031049999996 53.14965, 292.50024049999996 26.574825, 292.50024049999996 26.574825, 281.87031049999996 10.62993, 281.8703105 10.62993, 256.579935375 0, 256.579935375 0, 220.65963025 10.62993, 220.65963025 10.62993, 199.39977025 0, 199.39977025 0, 178.13991025 10.62993, 178.13991025 10.62993, 156.88005025 0, 156.88005025 0, 135.62019025 10.62993, 135.62019025 10.62993, 114.36033025 0, 114.36033025 0, 93.10047025 10.62993, 93.10047025 10.62993, 71.84061025 0, 71.84061025 0, 35.920305125 10.62993, 35.920305125 "/> 
 <circle cx="106.2993" cy="88.58275" r="65.551235" style="stroke:#000000;stroke-width:0.90000074;fill:none" /> 
 <circle cx="318.8979" cy="88.58275" r="65.551235" style="stroke:#000000;stroke-width:0.90000074;fill:none" /> 
 <circle cx="212.5986" cy="194.88205" r="74.40951" style="stroke:#000000;stroke-width:0.90000074;fill:none" /> 
 
 <g transform="scale(0.000432532958984375)" ><g transform="translate(-1249,819)" ><path transform="translate(491520, 338124.79999999993)rotate(180) scale(-1, 1)" stroke-width="0" fill="#000000" d="M201 1462h413c194 0 334.333 -29 421 -87s130 -149.667 130 -275c0 -86.667 -24.167 -158.167 -72.5 -214.5s-118.833 -92.833 -211.5 -109.5v-10c222 -38 333 -154.667 333 -350c0 -130.667 -44.167 -232.667 -132.5 -306s-211.833 -110 -370.5 -110h-510v1462zM371 836 h280c120 0 206.333 18.833 259 56.5s79 101.167 79 190.5c0 82 -29.333 141.167 -88 177.5s-152 54.5 -280 54.5h-250v-479zM371 692v-547.001h305c118 0 206.833 22.833 266.5 68.5s89.5 117.167 89.5 214.5c0 90.667 -30.5 157.334 -91.5 200.001s-153.833 64 -278.5 64 h-291z"/>
<path transform="translate(492847, 338124.79999999993)rotate(180) scale(-1, 1)" stroke-width="0" fill="#000000" d="M715 0h-162.001v1042c0 86.667 2.66699 168.667 8 246c-14 -14 -29.667 -28.667 -47 -44s-96.666 -80.333 -237.999 -195l-88 114l387 299h140v-1462z"/>
</g></g> 
 
 <g transform="scale(0.000432532958984375)" ><g transform="translate(-1249,819)" ><path transform="translate(491520, 163839.99999999997)rotate(180) scale(-1, 1)" stroke-width="0" fill="#000000" d="M201 1462h413c194 0 334.333 -29 421 -87s130 -149.667 130 -275c0 -86.667 -24.167 -158.167 -72.5 -214.5s-118.833 -92.833 -211.5 -109.5v-10c222 -38 333 -154.667 333 -350c0 -130.667 -44.167 -232.667 -132.5 -306s-211.833 -110 -370.5 -110h-510v1462zM371 836 h280c120 0 206.333 18.833 259 56.5s79 101.167 79 190.5c0 82 -29.333 141.167 -88 177.5s-152 54.5 -280 54.5h-250v-479zM371 692v-547.001h305c118 0 206.833 22.833 266.5 68.5s89.5 117.167 89.5 214.5c0 90.667 -30.5 157.334 -91.5 200.001s-153.833 64 -278.5 64 h-291z"/>
<path transform="translate(492847, 163839.99999999997)rotate(180) scale(-1, 1)" stroke-width="0" fill="#000000" d="M715 0h-162.001v1042c0 86.667 2.66699 168.667 8 246c-14 -14 -29.667 -28.667 -47 -44s-96.666 -80.333 -237.999 -195l-88 114l387 299h140v-1462z"/>
</g></g> 
 
 <g transform="scale(0.000432532958984375)" ><g transform="translate(-1249,819)" ><path transform="translate(491520, 163839.99999999997)rotate(180) scale(-1, 1)" stroke-width="0" fill="#000000" d="M201 1462h413c194 0 334.333 -29 421 -87s130 -149.667 130 -275c0 -86.667 -24.167 -158.167 -72.5 -214.5s-118.833 -92.833 -211.5 -109.5v-10c222 -38 333 -154.667 333 -350c0 -130.667 -44.167 -232.667 -132.5 -306s-211.833 -110 -370.5 -110h-510v1462zM371 836 h280c120 0 206.333 18.833 259 56.5s79 101.167 79 190.5c0 82 -29.333 141.167 -88 177.5s-152 54.5 -280 54.5h-250v-479zM371 692v-547.001h305c118 0 206.833 22.833 266.5 68.5s89.5 117.167 89.5 214.5c0 90.667 -30.5 157.334 -91.5 200.001s-153.833 64 -278.5 64 h-291z"/>
<path transform="translate(492847, 163839.99999999997)rotate(180) scale(-1, 1)" stroke-width="0" fill="#000000" d="M715 0h-162.001v1042c0 86.667 2.66699 168.667 8 246c-14 -14 -29.667 -28.667 -47 -44s-96.666 -80.333 -237.999 -195l-88 114l387 299h140v-1462z"/>
</g></g> 
 
 <g transform="scale(0.000432532958984375)" ><g transform="translate(-1249,819)" ><path transform="translate(491520, 338124.79999999993)rotate(180) scale(-1, 1)" stroke-width="0" fill="#000000" d="M201 1462h413c194 0 334.333 -29 421 -87s130 -149.667 130 -275c0 -86.667 -24.167 -158.167 -72.5 -214.5s-118.833 -92.833 -211.5 -109.5v-10c222 -38 333 -154.667 333 -350c0 -130.667 -44.167 -232.667 -132.5 -306s-211.833 -110 -370.5 -110h-510v1462zM371 836 h280c120 0 206.333 18.833 259 56.5s79 101.167 79 190.5c0 82 -29.333 141.167 -88 177.5s-152 54.5 -280 54.5h-250v-479zM371 692v-547.001h305c118 0 206.833 22.833 266.5 68.5s89.5 117.167 89.5 214.5c0 90.667 -30.5 157.334 -91.5 200.001s-153.833 64 -278.5 64 h-291z"/>
<path transform="translate(492847, 338124.79999999993)rotate(180) scale(-1, 1)" stroke-width="0" fill="#000000" d="M715 0h-162.001v1042c0 86.667 2.66699 168.667 8 246c-14 -14 -29.667 -28.667 -47 -44s-96.666 -80.333 -237.999 -195l-88 114l387 299h140v-1462z"/>
</g></g> 
 
 <g transform="scale(0.000432532958984375)" ><g transform="translate(-1249,819)" ><path transform="translate(491520, 338124.79999999993)rotate(180) scale(-1, 1)" stroke-width="0" fill="#000000" d="M201 1462h413c194 0 334.333 -29 421 -87s130 -149.667 130 -275c0 -86.667 -24.167 -158.167 -72.5 -214.5s-118.833 -92.833 -211.5 -109.5v-10c222 -38 333 -154.667 333 -350c0 -130.667 -44.167 -232.667 -132.5 -306s-211.833 -110 -370.5 -110h-510v1462zM371 836 h280c120 0 206.333 18.833 259 56.5s79 101.167 79 190.5c0 82 -29.333 141.167 -88 177.5s-152 54.5 -280 54.5h-250v-479zM371 692v-547.001h305c118 0 206.833 22.833 266.5 68.5s89.5 117.167 89.5 214.5c0 90.667 -30.5 157.334 -91.5 200.001s-153.833 64 -278.5 64 h-291z"/>
<path transform="translate(492847, 338124.79999999993)rotate(180) scale(-1, 1)" stroke-width="0" fill="#000000" d="M715 0h-162.001v1042c0 86.667 2.66699 168.667 8 246c-14 -14 -29.667 -28.667 -47 -44s-96.666 -80.333 -237.999 -195l-88 114l387 299h140v-1462z"/>
</g></g> 
 
 <g transform="scale(0.000432532958984375)" ><g transform="translate(-1249,819)" ><path transform="translate(491520, 338124.79999999993)rotate(180) scale(-1, 1)" stroke-width="0" fill="#000000" d="M201 1462h413c194 0 334.333 -29 421 -87s130 -149.667 130 -275c0 -86.667 -24.167 -158.167 -72.5 -214.5s-118.833 -92.833 -211.5 -109.5v-10c222 -38 333 -154.667 333 -350c0 -130.667 -44.167 -232.667 -132.5 -306s-211.833 -110 -370.5 -110h-510v1462zM371 836 h280c120 0 206.333 18.833 259 56.5s79 101.167 79 190.5c0 82 -29.333 141.167 -88 177.5s-152 54.5 -280 54.5h-250v-479zM371 692v-547.001h305c118 0 206.833 22.833 266.5 68.5s89.5 117.167 89.5 214.5c0 90.667 -30.5 157.334 -91.5 200.001s-153.833 64 -278.5 64 h-291z"/>
<path transform="translate(492847, 338124.79999999993)rotate(180) scale(-1, 1)" stroke-width="0" fill="#000000" d="M715 0h-162.001v1042c0 86.667 2.66699 168.667 8 246c-14 -14 -29.667 -28.667 -47 -44s-96.666 -80.333 -237.999 -195l-88 114l387 299h140v-1462z"/>
</g></g> 
 
 <g transform="scale(0.000432532958984375)" ><g transform="translate(-663.5,819)" ><path transform="translate(491520, 338124.79999999993)rotate(180) scale(-1, 1)" stroke-width="0" fill="#000000" d="M201 1462h413c194 0 334.333 -29 421 -87s130 -149.667 130 -275c0 -86.667 -24.167 -158.167 -72.5 -214.5s-118.833 -92.833 -211.5 -109.5v-10c222 -38 333 -154.667 333 -350c0 -130.667 -44.167 -232.667 -132.5 -306s-211.833 -110 -370.5 -110h-510v1462zM371 836 h280c120 0 206.333 18.833 259 56.5s79 101.167 79 190.5c0 82 -29.333 141.167 -88 177.5s-152 54.5 -280 54.5h-250v-479zM371 692v-547.001h305c118 0 206.833 22.833 266.5 68.5s89.5 117.167 89.5 214.5c0 90.667 -30.5 157.334 -91.5 200.001s-153.833 64 -278.5 64 h-291z"/>
</g></g> 
 
 <g transform="scale(0.000432532958984375)" ><g transform="translate(-663.5,819)" ><path transform="translate(491520, 338124.79999999993)rotate(180) scale(-1, 1)" stroke-width="0" fill="#000000" d="M201 1462h413c194 0 334.333 -29 421 -87s130 -149.667 130 -275c0 -86.667 -24.167 -158.167 -72.5 -214.5s-118.833 -92.833 -211.5 -109.5v-10c222 -38 333 -154.667 333 -350c0 -130.667 -44.167 -232.667 -132.5 -306s-211.833 -110 -370.5 -110h-510v1462zM371 836 h280c120 0 206.333 18.833 259 56.5s79 101.167 79 190.5c0 82 -29.333 141.167 -88 177.5s-152 54.5 -280 54.5h-250v-479zM371 692v-547.001h305c118 0 206.833 22.833 266.5 68.5s89.5 117.167 89.5 214.5c0 90.667 -30.5 157.334 -91.5 200.001s-153.833 64 -278.5 64 h-291z"/>
</g></g> 
 
 <g transform="scale(0.000432532958984375)" ><g transform="translate(-663.5,819)" ><path transform="translate(491520, 338124.79999999993)rotate(180) scale(-1, 1)" stroke-width="0" fill="#000000" d="M201 1462h413c194 0 334.333 -29 421 -87s130 -149.667 130 -275c0 -86.667 -24.167 -158.167 -72.5 -214.5s-118.833 -92.833 -211.5 -109.5v-10c222 -38 333 -154.667 333 -350c0 -130.667 -44.167 -232.667 -132.5 -306s-211.833 -110 -370.5 -110h-510v1462zM371 836 h280c120 0 206.333 18.833 259 56.5s79 101.167 79 190.5c0 82 -29.333 141.167 -88 177.5s-152 54.5 -280 54.5h-250v-479zM371 692v-547.001h305c118 0 206.833 22.833 266.5 68.5s89.5 117.167 89.5 214.5c0 90.667 -30.5 157.334 -91.5 200.001s-153.833 64 -278.5 64 h-291z"/>
</g></g> 
 
 <g transform="scale(0.000432532958984375)" ><g transform="translate(-663.5,819)" ><path transform="translate(491520, 122880)rotate(180) scale(-1, 1)" stroke-width="0" fill="#000000" d="M201 1462h413c194 0 334.333 -29 421 -87s130 -149.667 130 -275c0 -86.667 -24.167 -158.167 -72.5 -214.5s-118.833 -92.833 -211.5 -109.5v-10c222 -38 333 -154.667 333 -350c0 -130.667 -44.167 -232.667 -132.5 -306s-211.833 -110 -370.5 -110h-510v1462zM371 836 h280c120 0 206.333 18.833 259 56.5s79 101.167 79 190.5c0 82 -29.333 141.167 -88 177.5s-152 54.5 -280 54.5h-250v-479zM371 692v-547.001h305c118 0 206.833 22.833 266.5 68.5s89.5 117.167 89.5 214.5c0 90.667 -30.5 157.334 -91.5 200.001s-153.833 64 -278.5 64 h-291z"/>
</g></g> 
 
 <g transform="scale(0.000432532958984375)" ><g transform="translate(-663.5,819)" ><path transform="translate(163839.99999999997, 122880)rotate(180) scale(-1, 1)" stroke-width="0" fill="#000000" d="M201 1462h413c194 0 334.333 -29 421 -87s130 -149.667 130 -275c0 -86.667 -24.167 -158.167 -72.5 -214.5s-118.833 -92.833 -211.5 -109.5v-10c222 -38 333 -154.667 333 -350c0 -130.667 -44.167 -232.667 -132.5 -306s-211.833 -110 -370.5 -110h-510v1462zM371 836 h280c120 0 206.333 18.833 259 56.5s79 101.167 79 190.5c0 82 -29.333 141.167 -88 177.5s-152 54.5 -280 54.5h-250v-479zM371 692v-547.001h305c118 0 206.833 22.833 266.5 68.5s89.5 117.167 89.5 214.5c0 90.667 -30.5 157.334 -91.5 200.001s-153.833 64 -278.5 64 h-291z"/>
</g></g> 
 
 <g transform="scale(0.000432532958984375)" ><g transform="translate(-663.5,819)" ><path transform="translate(163839.99999999997, 409600)rotate(180) scale(-1, 1)" stroke-width="0" fill="#000000" d="M201 1462h413c194 0 334.333 -29 421 -87s130 -149.667 130 -275c0 -86.667 -24.167 -158.167 -72.5 -214.5s-118.833 -92.833 -211.5 -109.5v-10c222 -38 333 -154.667 333 -350c0 -130.667 -44.167 -232.667 -132.5 -306s-211.833 -110 -370.5 -110h-510v1462zM371 836 h280c120 0 206.333 18.833 259 56.5s79 101.167 79 190.5c0 82 -29.333 141.167 -88 177.5s-152 54.5 -280 54.5h-250v-479zM371 692v-547.001h305c118 0 206.833 22.833 266.5 68.5s89.5 117.167 89.5 214.5c0 90.667 -30.5 157.334 -91.5 200.001s-153.833 64 -278.5 64 h-291z"/>
</g></g> 
 
 <g transform="scale(0.000432532958984375)" ><g transform="translate(-1249,819)" ><path transform="translate(491520, 81919.99999999999)rotate(180) scale(-1, 1)" stroke-width="0" fill="#000000" d="M201 1462h413c194 0 334.333 -29 421 -87s130 -149.667 130 -275c0 -86.667 -24.167 -158.167 -72.5 -214.5s-118.833 -92.833 -211.5 -109.5v-10c222 -38 333 -154.667 333 -350c0 -130.667 -44.167 -232.667 -132.5 -306s-211.833 -110 -370.5 -110h-510v1462zM371 836 h280c120 0 206.333 18.833 259 56.5s79 101.167 79 190.5c0 82 -29.333 141.167 -88 177.5s-152 54.5 -280 54.5h-250v-479zM371 692v-547.001h305c118 0 206.833 22.833 266.5 68.5s89.5 117.167 89.5 214.5c0 90.667 -30.5 157.334 -91.5 200.001s-153.833 64 -278.5 64 h-291z"/>
<path transform="translate(492847, 81919.99999999999)rotate(180) scale(-1, 1)" stroke-width="0" fill="#000000" d="M715 0h-162.001v1042c0 86.667 2.66699 168.667 8 246c-14 -14 -29.667 -28.667 -47 -44s-96.666 -80.333 -237.999 -195l-88 114l387 299h140v-1462z"/>
</g></g> 
 
 <g transform="scale(0.000432532958984375)" ><g transform="translate(-1249,819)" ><path transform="translate(491520, 81919.99999999999)rotate(180) scale(-1, 1)" stroke-width="0" fill="#000000" d="M201 1462h413c194 0 334.333 -29 421 -87s130 -149.667 130 -275c0 -86.667 -24.167 -158.167 -72.5 -214.5s-118.833 -92.833 -211.5 -109.5v-10c222 -38 333 -154.667 333 -350c0 -130.667 -44.167 -232.667 -132.5 -306s-211.833 -110 -370.5 -110h-510v1462zM371 836 h280c120 0 206.333 18.833 259 56.5s79 101.167 79 190.5c0 82 -29.333 141.167 -88 177.5s-152 54.5 -280 54.5h-250v-479zM371 692v-547.001h305c118 0 206.833 22.833 266.5 68.5s89.5 117.167 89.5 214.5c0 90.667 -30.5 157.334 -91.5 200.001s-153.833 64 -278.5 64 h-291z"/>
<path transform="translate(492847, 81919.99999999999)rotate(180) scale(-1, 1)" stroke-width="0" fill="#000000" d="M715 0h-162.001v1042c0 86.667 2.66699 168.667 8 246c-14 -14 -29.667 -28.667 -47 -44s-96.666 -80.333 -237.999 -195l-88 114l387 299h140v-1462z"/>
</g></g> 
 
 <g transform="scale(0.00086506591796875)" ><g transform="translate(-1249,819)" ><path transform="translate(245760, 40959.99999999999)rotate(180) scale(-1, 1)" stroke-width="0" fill="#000000" d="M201 1462h413c194 0 334.333 -29 421 -87s130 -149.667 130 -275c0 -86.667 -24.167 -158.167 -72.5 -214.5s-118.833 -92.833 -211.5 -109.5v-10c222 -38 333 -154.667 333 -350c0 -130.667 -44.167 -232.667 -132.5 -306s-211.833 -110 -370.5 -110h-510v1462zM371 836 h280c120 0 206.333 18.833 259 56.5s79 101.167 79 190.5c0 82 -29.333 141.167 -88 177.5s-152 54.5 -280 54.5h-250v-479zM371 692v-547.001h305c118 0 206.833 22.833 266.5 68.5s89.5 117.167 89.5 214.5c0 90.667 -30.5 157.334 -91.5 200.001s-153.833 64 -278.5 64 h-291z"/>
<path transform="translate(247087, 40959.99999999999)rotate(180) scale(-1, 1)" stroke-width="0" fill="#000000" d="M715 0h-162.001v1042c0 86.667 2.66699 168.667 8 246c-14 -14 -29.667 -28.667 -47 -44s-96.666 -80.333 -237.999 -195l-88 114l387 299h140v-1462z"/>
</g></g> 
 
 <g transform="scale(0.0017301318359375)" ><g transform="translate(-1249,819)" ><path transform="translate(122880, 20479.999999999996)rotate(180) scale(-1, 1)" stroke-width="0" fill="#000000" d="M201 1462h413c194 0 334.333 -29 421 -87s130 -149.667 130 -275c0 -86.667 -24.167 -158.167 -72.5 -214.5s-118.833 -92.833 -211.5 -109.5v-10c222 -38 333 -154.667 333 -350c0 -130.667 -44.167 -232.667 -132.5 -306s-211.833 -110 -370.5 -110h-510v1462zM371 836 h280c120 0 206.333 18.833 259 56.5s79 101.167 79 190.5c0 82 -29.333 141.167 -88 177.5s-152 54.5 -280 54.5h-250v-479zM371 692v-547.001h305c118 0 206.833 22.833 266.5 68.5s89.5 117.167 89.5 214.5c0 90.667 -30.5 157.334 -91.5 200.001s-153.833 64 -278.5 64 h-291z"/>
<path transform="translate(124207, 20479.999999999996)rotate(180) scale(-1, 1)" stroke-width="0" fill="#000000" d="M715 0h-162.001v1042c0 86.667 2.66699 168.667 8 246c-14 -14 -29.667 -28.667 -47 -44s-96.666 -80.333 -237.999 -195l-88 114l387 299h140v-1462z"/>
</g></g> 
</g>
<!-- Bottom--> 
<g transform="translate(447.69721849999996, 128.7993185) " > 
<polygon style="stroke:#000000; fill:none; stroke-width:0.90000074" points="10.62993, 10.62993 26.574825, 10.62993 26.574825, 0 53.14965, 0 53.14965, 10.62993 74.40951, 10.62993 74.40951, 0 95.66937, 0 95.66937, 10.62993 116.92922999999999, 10.62993 116.92922999999999, 0 138.18909, 0 138.18909, 10.62993 159.44895, 10.62993 159.44895, 0 180.70881, 0 180.70881, 10.62993 201.96867, 10.62993 201.96867, 0 223.22853, 0 223.22853, 10.62993 244.48839, 10.62993 244.48839, 0 265.74825, 0 265.74825, 10.62993 287.00811, 10.62993 287.00811, 0 308.26797, 0 308.26797, 10.62993 329.52783, 10.62993 329.52783, 0 350.78769, 0 350.78769, 10.62993 372.04755, 10.62993 372.04755, 0 398.622375, 0 398.622375, 10.62993 414.56727, 10.62993 414.56727, 35.920305125 425.1972, 35.920305125 425.1972, 71.84061025 414.56727, 71.84061025 414.56727, 93.10047025 425.1972, 93.10047025 425.1972, 114.36033025 414.56727, 114.36033025 414.56727, 135.62019025 425.1972, 135.62019025 425.1972, 156.88005025 414.56727, 156.88005025 414.56727, 178.13991025 425.1972, 178.13991025 425.1972, 199.39977025 414.56727, 199.39977025 414.56727, 220.65963025 425.1972, 220.65963025 425.1972, 256.579935375 414.56727, 256.579935375 414.56727, 281.87031049999996 398.622375, 281.87031049999996 398.622375, 292.50024049999996 372.04755, 292.50024049999996 372.04755, 281.87031049999996 350.78769, 281.87031049999996 350.78769, 292.50024049999996 329.52783, 292.50024049999996 329.52783, 281.87031049999996 308.26797, 281.87031049999996 308.26797, 292.50024049999996 287.00811, 292.50024049999996 287.00811, 281.87031049999996 265.74825, 281.87031049999996 265.74825, 292.50024049999996 244.48839, 292.50024049999996 244.48839, 281.87031049999996 223.22853, 281.87031049999996 223.22853, 292.50024049999996 201.96867, 292.50024049999996 201.96867, 281.87031049999996 180.70881, 281.87031049999996 180.70881, 292.50024049999996 159.44895, 292.50024049999996 159.44895, 281.87031049999996 138.18909, 281.87031049999996 138.18909, 292.50024049999996 116.92922999999999, 292.50024049999996 116.92922999999999, 281.87031049999996 95.66937, 281.87031049999996 95.66937, 292.50024049999996 74.40951, 292.50024049999996 74.40951, 281.87031049999996 53.14965, 281.87031049999996 53.14965, 292.50024049999996 26.574825, 292.50024049999996 26.574825, 281.87031049999996 10.62993, 281.8703105 10.62993, 256.579935375 0, 256.579935375 0, 220.65963025 10.62993, 220.65963025 10.62993, 199.39977025 0, 199.39977025 0, 178.13991025 10.62993, 178.13991025 10.62993, 156.88005025 0, 156.88005025 0, 135.62019025 10.62993, 135.62019025 10.62993, 114.36033025 0, 114.36033025 0, 93.10047025 10.62993, 93.10047025 10.62993, 71.84061025 0, 71.84061025 0, 35.920305125 10.62993, 35.920305125 "/> 
</g></svg>